<?xml version="1.0" encoding="UTF-8" standalone="no"?>
<!-- Created with Inkscape (http://www.inkscape.org/) -->

<svg
   width="210mm"
   height="297mm"
   viewBox="0 0 210 297"
   version="1.1"
   id="svg1"
   xml:space="preserve"
   inkscape:version="1.4.2 (ebf0e940, 2025-05-08)"
   sodipodi:docname="logo.svg"
   xmlns:inkscape="http://www.inkscape.org/namespaces/inkscape"
   xmlns:sodipodi="http://sodipodi.sourceforge.net/DTD/sodipodi-0.dtd"
   xmlns="http://www.w3.org/2000/svg"
   xmlns:svg="http://www.w3.org/2000/svg"><sodipodi:namedview
     id="namedview1"
     pagecolor="#ffffff"
     bordercolor="#000000"
     borderopacity="0.25"
     inkscape:showpageshadow="2"
     inkscape:pageopacity="0.0"
     inkscape:pagecheckerboard="0"
     inkscape:deskcolor="#d1d1d1"
     inkscape:document-units="mm"
     inkscape:zoom="1.0482005"
     inkscape:cx="505.62846"
     inkscape:cy="615.3403"
     inkscape:window-width="904"
     inkscape:window-height="251"
     inkscape:window-x="244"
     inkscape:window-y="226"
     inkscape:window-maximized="0"
     inkscape:current-layer="layer1" /><defs
     id="defs1" /><g
     inkscape:label="Layer 1"
     inkscape:groupmode="layer"
     id="layer1"><g
       id="g2"><rect
         style="fill:#000080;stroke:#000000;stroke-width:0.1"
         id="rect2"
         width="99.900002"
         height="99.900002"
         x="73.422302"
         y="98.550003"
         ry="23.193825" /><path
         style="fill:#ffdd55;stroke-width:1"
         d="m 83.852257,179.64919 c -3.389671,-5.98226 -5.124795,-10.83156 -6.128515,-17.12788 -0.30223,-1.89588 -0.350819,-2.7896 -0.351436,-6.46403 -7.91e-4,-4.58389 0.156224,-6.2027 0.947342,-9.76837 3.828107,-17.25374 16.968604,-30.73546 34.088762,-34.97397 4.06859,-1.00728 5.95821,-1.21779 10.93127,-1.21779 4.97307,0 6.86266,0.21051 10.93127,1.21779 9.01795,2.23262 16.66115,6.79395 23.1393,13.80918 6.07204,6.57542 10.13518,15.12799 11.52788,24.26526 0.41374,2.71445 0.5643,7.90744 0.30857,10.64258 -0.54804,5.86133 -2.06068,11.13085 -4.76547,16.60102 l -1.31873,2.66702 -0.95583,-0.69551 c -1.59762,-1.1625 -3.29819,-1.44668 -5.02507,-0.83973 -0.48528,0.17055 -0.93493,0.3101 -0.99921,0.3101 -0.0644,0 -0.35454,-0.3663 -0.64498,-0.81402 -1.17132,-1.8056 -2.39216,-2.50654 -4.36563,-2.50654 -1.58714,0 -2.43353,0.36671 -3.73849,1.6198 -0.5301,0.50903 -0.99395,0.92549 -1.03077,0.92549 -0.0369,0 -0.42085,-0.57563 -0.85337,-1.27919 -0.43251,-0.70354 -1.12359,-1.60645 -1.53573,-2.00643 -2.016,-1.95649 -4.91683,-2.88701 -7.66467,-2.45865 l -1.14749,0.17888 -0.62021,-0.73384 c -0.80565,-0.95324 -2.2049,-1.84939 -3.50352,-2.24384 l -1.03553,-0.31453 -1.11112,0.33749 c -0.61112,0.18562 -1.13371,0.31213 -1.1613,0.28113 -0.0276,-0.031 -0.4661,-1.76583 -0.97447,-3.85518 -0.65946,-2.71037 -0.99029,-3.81166 -1.15463,-3.84367 -0.12668,-0.0247 -0.67019,0.30676 -1.20782,0.73651 -0.5376,0.42974 -1.02439,0.78136 -1.08176,0.78136 -0.0573,0 -0.53723,-0.34887 -1.06638,-0.77527 -0.52916,-0.4264 -1.0498,-0.77527 -1.15699,-0.77527 -0.14027,0 -0.35161,1.34606 -0.75393,4.80153 l -0.55902,4.80153 -0.48131,0.54817 c -0.2647,0.30149 -0.64027,0.82657 -0.83458,1.16683 -0.19431,0.34027 -0.42551,0.61921 -0.51374,0.61986 -0.0882,4.4e-4 -0.55746,-0.13835 -1.04273,-0.30891 -1.78107,-0.62598 -3.42853,-0.3167 -5.13993,0.96496 -0.57055,0.42728 -1.05705,0.75129 -1.0811,0.72 -0.024,-0.0313 -0.37907,-0.75463 -0.78897,-1.60744 -0.62042,-1.29081 -0.94294,-1.74635 -1.92549,-2.71964 -1.92668,-1.9085 -4.06771,-2.72833 -6.76217,-2.58937 -3.373645,0.17402 -6.13867,1.98244 -7.568818,4.95027 -0.57365,1.19044 -0.697646,1.348 -1.067785,1.35672 -1.583417,0.0374 -3.340444,0.78785 -4.621838,1.97419 -1.154978,1.06932 -1.423566,1.50843 -2.307365,3.77233 l -0.714811,1.83104 z m 79.281333,-7.74855 c 5.06549,-12.62372 3.7806,-27.02307 -3.44163,-38.56919 -2.2118,-3.536 -5.86415,-7.67751 -9.18538,-10.4156 -6.99495,-5.76677 -15.72659,-9.15983 -24.79631,-9.63567 -12.18567,-0.63931 -23.51729,3.60941 -32.198727,12.0727 -5.844337,5.69748 -9.768305,12.44879 -11.729027,20.18015 -2.354828,9.28538 -1.447305,19.41795 2.515165,28.08205 l 0.477745,1.04461 1.028986,-0.9707 c 1.100294,-1.03795 2.995036,-2.13002 4.239139,-2.44329 0.663052,-0.16696 0.80319,-0.28679 1.419355,-1.21363 3.776839,-5.68119 11.349304,-7.24376 16.991644,-3.50623 0.94315,0.62476 2.73234,2.33824 3.28583,3.14681 l 0.24528,0.3583 0.90912,-0.27627 c 0.59751,-0.18159 1.41622,-0.2767 2.38867,-0.27751 l 1.47958,-9.7e-4 0.55353,-4.7324 c 0.30443,-2.60281 0.53765,-4.75205 0.51828,-4.77609 -0.0194,-0.024 -0.69008,0.12626 -1.49042,0.33396 -0.80034,0.20772 -1.78207,0.42651 -2.18161,0.4862 l -0.72644,0.10849 -0.5318,-1.06271 c -1.37709,-2.75187 -2.4008,-6.18232 -2.75555,-9.23385 -0.25367,-2.18197 -0.0989,-6.41492 0.30686,-8.39465 0.17199,-0.83909 0.51835,-2.23458 0.7697,-3.10107 0.25134,-0.8665 0.60171,-2.42269 0.7786,-3.45819 1.1255,-6.58883 4.80649,-12.58467 10.38605,-16.9175 0.46673,-0.36244 0.89059,-0.65898 0.94192,-0.65898 0.19807,0 2.70851,2.07812 3.70674,3.0684 3.97529,3.94361 6.7236,9.16509 7.63628,14.50808 0.17689,1.0355 0.52726,2.59169 0.77861,3.45819 0.82082,2.82977 1.07752,4.44265 1.17259,7.36745 0.0575,1.77119 0.022,3.27394 -0.10064,4.24797 -0.38309,3.04344 -1.40145,6.41741 -2.75095,9.11415 l -0.53179,1.06271 -0.72646,-0.10853 c -0.39955,-0.0596 -1.38126,-0.27848 -2.1816,-0.48619 -0.80033,-0.20771 -1.46993,-0.35799 -1.48798,-0.33396 -0.018,0.024 0.25299,1.22408 0.60235,2.66676 l 0.6352,2.62307 1.08292,0.21874 c 1.41286,0.28538 3.00099,1.03255 4.31339,2.02933 l 1.05484,0.80115 h 1.43999 c 3.03876,0 5.84571,1.15853 8.18609,3.3787 l 0.88197,0.83669 1.01497,-0.40605 c 2.93736,-1.17513 6.18265,-0.63534 8.45312,1.40601 l 0.82725,0.74378 1.56797,0.0243 c 0.87519,0.0137 1.87625,0.12366 2.26571,0.24909 0.8427,0.27141 0.73517,0.4161 1.96087,-2.63845 z m -38.34213,-14.40912 c 4.5313,-4.58558 6.93602,-10.39355 6.94955,-16.78482 0.009,-3.94589 -0.85555,-7.58033 -2.64399,-11.12322 -1.05675,-2.09341 -3.52475,-5.30794 -5.09578,-6.63718 l -0.65639,-0.55536 -0.5729,0.43627 c -0.86235,0.65669 -2.75369,2.88504 -3.86291,4.55123 -3.81474,5.73016 -4.97986,12.94535 -3.155,19.53755 0.79163,2.85971 2.25094,5.84216 3.95819,8.08954 0.76128,1.00214 3.44761,3.84271 3.63405,3.84271 0.0574,0 0.70782,-0.61052 1.44518,-1.35672 z m -2.84217,-18.11018 c -1.57595,-0.43831 -3.04173,-1.71064 -3.57787,-3.10566 -1.01115,-2.63106 0.13493,-5.62502 2.62052,-6.84566 0.76943,-0.37786 1.05203,-0.42957 2.34774,-0.42957 1.38367,0 1.53249,0.0323 2.45387,0.53181 1.77441,0.96204 2.66909,2.3875 2.78041,4.4299 0.0874,1.60545 -0.29327,2.68189 -1.36246,3.85176 -1.32659,1.45149 -3.42823,2.0775 -5.26221,1.56742 z m 2.15966,-3.40039 c 0.71679,-0.37066 1.09137,-0.96615 1.09137,-1.73505 0,-1.18662 -0.76755,-1.9118 -2.02351,-1.9118 -0.522,0 -0.74059,0.0972 -1.15837,0.51496 -0.98221,0.9822 -0.79474,2.43705 0.39632,3.07583 0.64413,0.34544 1.1051,0.3607 1.69419,0.0561 z m -7.94102,20.84206 0.47216,-0.16459 -0.92967,-1.47913 c -0.5113,-0.81352 -1.14018,-1.92906 -1.39752,-2.47897 -0.25733,-0.54991 -0.49991,-0.96781 -0.53904,-0.92867 -0.10353,0.10353 0.66916,2.94701 1.13299,4.16934 0.41555,1.09511 0.49347,1.1496 1.26108,0.88202 z m 15.54398,-0.72205 c 0.3803,-1.01645 0.99947,-3.12083 1.15336,-3.92002 0.0773,-0.40176 -0.0923,-0.17768 -0.65309,0.86289 -0.41669,0.77306 -1.07906,1.90249 -1.47196,2.50985 l -0.71436,1.10427 0.41696,0.15258 c 0.79754,0.29187 0.92003,0.22338 1.26909,-0.70957 z"
         id="path1" /></g></g></svg>
